<svg width="52" height="52" viewBox="0 0 52 52" fill="none" xmlns="http://www.w3.org/2000/svg">
<path d="M0.22718 15.0739C0.503998 14.7624 7.08663 7.45316 14.4342 7.19728C18.3151 7.06434 20.9403 7.84653 22.5302 8.59139C22.9636 7.47046 24.6218 4.25244 30.0553 1.49336C32.0076 0.502644 34.4024 0 37.177 0C41.9366 0 46.1199 1.45785 46.2965 1.51886C46.4604 1.57714 46.5743 1.72921 46.5824 1.90313C46.5916 2.07705 46.4932 2.23913 46.3366 2.31289C46.0771 2.43491 39.957 5.29598 37.2143 5.29598C37.0513 5.29598 36.9002 5.28596 36.7627 5.26684C35.9158 5.14482 35.1145 4.97545 34.4261 4.80335L35.364 5.53273C35.4815 5.62379 35.5425 5.76948 35.5279 5.91609C35.5124 6.0636 35.4223 6.1929 35.2884 6.25847L33.1759 7.29016C33.8406 7.23006 34.5235 7.19455 35.2211 7.18271L35.4223 7.18089C43.6777 7.18089 51.4304 14.9628 51.7564 15.2942C51.8793 15.4181 51.9148 15.6038 51.8466 15.765C51.7773 15.9244 51.6362 16.0391 51.445 16.0245C51.0835 16.0191 42.5786 15.8761 40.2247 14.2771C39.3278 13.6679 38.5165 13.0232 37.8572 12.4614L38.5766 13.9247C38.6421 14.0576 38.6339 14.2143 38.5556 14.3408C38.4764 14.4674 38.3389 14.5439 38.1905 14.5439H33.8106C33.6612 14.5439 33.5228 14.4665 33.4454 14.339L32.8972 13.4494L32.951 13.9393C32.9737 14.1514 32.8371 14.349 32.6304 14.4018C32.5703 14.4173 31.1525 14.7743 29.2194 14.7743C29.2057 14.7743 29.1921 14.7743 29.1775 14.7734C32.1487 16.427 34.7576 18.8127 37.0413 21.5673C37.045 21.5691 37.0568 21.5745 37.0586 21.5755L37.055 21.5827C40.4742 25.7113 43.1586 30.6786 45.1811 35.3344C45.192 35.3426 45.2056 35.3526 45.2075 35.3536L45.1956 35.369C48.5593 43.12 50.1073 49.9776 50.2366 50.5613C50.2776 50.7479 50.1884 50.9419 50.019 51.033C48.817 51.6731 47.483 52 46.0534 52C43.6385 52 41.8028 51.0758 41.7245 51.0366C41.5842 50.9647 41.4941 50.8217 41.4904 50.6633C41.0952 31.5109 27.5366 16.3687 25.8611 14.5712C24.5044 18.0333 21.555 20.2633 21.4238 20.3607C21.2526 20.4882 21.0132 20.4709 20.862 20.3188L20.5151 19.9701L20.862 20.9553C20.913 21.0956 20.8848 21.2522 20.7919 21.3688L18.041 24.7716C17.9472 24.8873 17.8033 24.9455 17.654 24.9282C17.5074 24.9091 17.379 24.8171 17.3171 24.6815L16.6287 23.2018C16.6524 24.0677 16.6451 25.104 16.554 26.1858C16.3191 29.0195 11.0841 35.7269 10.8619 36.0101C10.7545 36.1458 10.5769 36.2059 10.4066 36.1585C10.2391 36.1103 10.118 35.9664 10.0961 35.7943C10.0424 35.3253 8.84498 24.2316 14.1792 17.8366C15.577 16.162 17.0457 14.777 18.5628 13.7016C17.6467 13.6524 17.0512 13.5331 17.0193 13.5268C16.8108 13.484 16.6633 13.2937 16.676 13.0815L16.6888 12.8775L16.3573 13.4822C16.2863 13.6133 16.1515 13.698 16.0022 13.7052L12.1568 13.9001C12.1486 13.9001 12.1413 13.9001 12.134 13.9001C12.1304 13.901 12.1286 13.901 12.1267 13.9001C11.8882 13.9001 11.696 13.708 11.696 13.4703C11.696 13.3802 11.7233 13.2973 11.7707 13.2281L12.2078 12.2073C11.6878 12.6909 11.0659 13.2281 10.3848 13.7444C8.37511 15.2624 0.892818 15.7677 0.576847 15.7878C0.397461 15.7914 0.239017 15.704 0.162529 15.5474C0.0860405 15.3917 0.111538 15.205 0.22718 15.0739ZM40.5635 28.2382C39.346 26.1657 37.9911 24.1606 36.4968 22.3221C36.23 22.2183 35.6062 22.0317 35.0262 22.283C34.5008 22.5106 34.1092 23.0652 33.8497 23.9084C34.8869 25.6094 35.934 27.4925 36.9229 29.5294C37.9455 28.383 39.4125 28.1453 40.5635 28.2382ZM41.1426 29.2481C40.4241 29.0878 38.4518 28.8347 37.3591 30.4528C38.0985 32.0399 38.796 33.7154 39.4243 35.4683C41.1526 34.1926 42.7953 34.3364 43.8853 34.6988C43.0685 32.8922 42.157 31.0547 41.1426 29.2481ZM47.2016 43.1709C46.4377 42.8195 43.6494 41.7204 41.5332 43.1263C41.7509 44.2564 41.9293 45.4055 42.0641 46.5738C44.6575 45.6559 47.0405 46.1304 48.2579 46.5083C47.9656 45.5212 47.6132 44.3957 47.2016 43.1709ZM46.8101 42.0291C46.1517 40.1469 45.3568 38.0707 44.4289 35.9263C43.7942 35.5393 41.8574 34.6424 39.7439 36.3743C40.3722 38.2283 40.9159 40.1642 41.3429 42.1684C43.2943 41.0711 45.5353 41.5738 46.8101 42.0291ZM46.0507 51.1377C47.2217 51.1377 48.3198 50.8955 49.3188 50.421C49.204 49.9412 48.9545 48.9413 48.5694 47.5818C47.9092 47.3196 45.1337 46.3726 42.1625 47.5126C42.2508 48.456 42.3145 49.4085 42.3409 50.3737C42.88 50.6032 44.316 51.1377 46.0507 51.1377ZM33.246 22.9359C33.5893 22.212 34.0619 21.7084 34.6647 21.448C34.9834 21.3105 35.3003 21.2586 35.5971 21.2522C33.1467 18.4603 30.3421 16.142 27.1569 14.7269C28.3734 16.1092 30.7373 18.9703 33.246 22.9359ZM9.86666 13.0587C11.737 11.6455 13.1657 10.0165 13.1803 10.001C13.3187 9.84163 13.5536 9.80612 13.733 9.91903C13.9106 10.0319 13.9816 10.2587 13.8987 10.4526L12.8015 13.0068L15.7172 12.8593L16.8481 10.7941C16.9447 10.6184 17.1495 10.5319 17.3435 10.5874C17.5365 10.6429 17.6658 10.8251 17.654 11.0236L17.5575 12.7428C18.031 12.8083 18.9197 12.8985 19.9851 12.8475C20.1854 12.8338 20.3603 12.9649 20.4185 13.1543C20.475 13.3428 20.3949 13.5468 20.2246 13.647C18.3597 14.747 16.5476 16.3405 14.8412 18.3866C10.6971 23.3538 10.7108 31.6101 10.8692 34.5859C12.6012 32.2639 15.5433 27.976 15.6981 26.1129C15.9202 23.4522 15.6216 21.0009 15.6197 20.9763C15.5942 20.7669 15.7245 20.5683 15.9275 20.5101C15.9667 20.4982 16.0077 20.4928 16.045 20.4928C16.2098 20.4928 16.3637 20.5875 16.4365 20.7414L17.807 23.6917L19.9742 21.0109L19.0727 18.4567C19.0053 18.2664 19.0782 18.056 19.2475 17.9486C19.4178 17.843 19.64 17.8675 19.7802 18.0087L21.2016 19.4328C22.0103 18.7508 24.3049 16.6255 25.2529 13.7271C25.323 13.5077 25.5552 13.382 25.781 13.4485C26.0423 13.524 26.3301 13.5923 26.6816 13.6634C26.7389 13.6761 26.7927 13.6998 26.8391 13.7307C26.8928 13.7189 26.9456 13.718 27.0003 13.728C27.7042 13.8482 28.4517 13.9092 29.2221 13.9092C30.4878 13.9092 31.5332 13.7435 32.0577 13.6415L31.8428 11.6446C31.8209 11.4443 31.9402 11.2558 32.1305 11.1911C32.3208 11.1274 32.5294 11.202 32.6359 11.3732L34.0546 13.6788H37.5012L36.067 10.7577C35.9732 10.5683 36.0324 10.3388 36.2054 10.2177C36.3775 10.0957 36.6143 10.1194 36.7618 10.2705C36.7791 10.2887 38.4983 12.0616 40.7064 13.5614C42.2535 14.6113 47.4393 15.0183 50.3332 15.1294C48.1396 13.1553 41.831 8.03593 35.4232 8.03593L35.2365 8.03775C33.5101 8.06507 31.8819 8.24901 30.3968 8.58593C30.2001 8.63055 29.9979 8.53038 29.9132 8.34644C29.8349 8.17799 29.8741 7.98221 30.0061 7.85564L29.0873 6.39688C28.9808 6.22751 29.0054 6.00532 29.1474 5.86327C29.2904 5.72213 29.5117 5.69755 29.681 5.80408L31.6698 7.06434L34.2932 5.78314L32.0977 4.07761C31.9302 3.9474 31.8828 3.71611 31.9857 3.52944C32.0877 3.34459 32.3108 3.26081 32.5084 3.33366C32.5284 3.34186 34.5672 4.0767 36.8865 4.40997C36.9876 4.42545 37.0978 4.43001 37.2161 4.43001C39.1311 4.43001 43.0667 2.81371 44.9388 1.99328C43.3999 1.55984 40.3959 0.85231 37.1797 0.85231C34.5408 0.85231 32.2762 1.32399 30.4468 2.25279C24.2667 5.39068 23.2405 9.1596 23.2323 9.19602C23.2259 9.21879 23.2077 9.27251 23.1967 9.29528L23.174 9.35173C23.1275 9.46191 23.0374 9.54842 22.9245 9.5894C22.8125 9.63037 22.6868 9.62127 22.5794 9.56572C21.1479 8.81358 18.5382 7.90572 14.4688 8.04777C8.8987 8.24264 3.59818 12.9194 1.6568 14.8326C4.20554 14.6049 8.58819 14.0249 9.86666 13.0587Z" fill="white"/>
</svg>
